<svg width="16" height="16" viewBox="0 0 16 16" fill="none" xmlns="http://www.w3.org/2000/svg">
<g clip-path="url(#clip0_2397_58)">
<path d="M15 0.74902L11.839 0.0190202C11.6719 -0.0197827 11.4965 0.0011828 11.3432 0.0782748C11.1899 0.155367 11.0685 0.283714 11 0.44102L9.54402 3.84702C9.48184 3.99243 9.4687 4.15413 9.50659 4.30767C9.54448 4.46121 9.63133 4.59823 9.75402 4.69802L11.6 6.20602C10.4841 8.57316 8.57916 10.4781 6.21202 11.594L4.70002 9.75202C4.60013 9.62947 4.4631 9.54272 4.30961 9.50484C4.15611 9.46696 3.99445 9.48001 3.84902 9.54202L0.444019 11.001C0.286474 11.0694 0.157727 11.1907 0.0799655 11.3438C0.0022036 11.497 -0.0197034 11.6725 0.0180193 11.84L0.748019 15.001C0.784932 15.1619 0.87537 15.3055 1.00453 15.4084C1.13369 15.5112 1.29393 15.5671 1.45902 15.567C3.3117 15.5673 5.14628 15.2026 6.858 14.4937C8.56971 13.7849 10.125 12.7458 11.4351 11.4358C12.7452 10.1258 13.7844 8.57059 14.4934 6.85892C15.2023 5.14726 15.5672 3.3127 15.567 1.46002C15.5671 1.29479 15.511 1.13445 15.408 1.00527C15.305 0.87609 15.1611 0.785737 15 0.74902V0.74902Z" fill="#00EAA8"/>
</g>
<defs>
<clipPath id="clip0_2397_58">
<rect width="15.568" height="15.568" fill="white"/>
</clipPath>
</defs>
</svg>
