<svg width="121" height="176" viewBox="0 0 121 176" fill="none" xmlns="http://www.w3.org/2000/svg">
<g clip-path="url(#clip0_2397_60)">
<path d="M60.4005 0C33.0725 0 15.3735 11.2 1.47852 31.162C0.263759 32.9039 -0.230171 35.0482 0.100112 37.146C0.430396 39.2438 1.55929 41.1326 3.25052 42.417L18.0185 53.617C19.7265 54.9111 21.8724 55.4867 23.9987 55.221C26.1251 54.9554 28.0634 53.8695 29.4005 52.195C37.9755 41.452 44.3375 35.266 57.7325 35.266C68.2645 35.266 81.2915 42.044 81.2915 52.257C81.2915 59.978 74.9185 63.943 64.5185 69.773C52.3915 76.573 36.3435 85.033 36.3435 106.2V109.551C36.3435 110.63 36.556 111.698 36.9689 112.695C37.3818 113.692 37.987 114.598 38.7499 115.361C39.5129 116.124 40.4186 116.729 41.4154 117.142C42.4122 117.554 43.4806 117.767 44.5595 117.767H69.3695C71.5485 117.767 73.6383 116.901 75.1791 115.361C76.7199 113.82 77.5855 111.73 77.5855 109.551V107.575C77.5855 92.902 120.471 92.291 120.471 52.585C120.475 22.683 89.4575 0 60.4005 0ZM56.9675 127.853C52.2771 127.853 47.692 129.244 43.7921 131.85C39.8921 134.456 36.8525 138.159 35.0576 142.493C33.2627 146.826 32.7931 151.595 33.7083 156.195C34.6234 160.795 36.8821 165.021 40.1988 168.337C43.5155 171.654 47.7412 173.913 52.3416 174.827C56.9419 175.742 61.7102 175.273 66.0436 173.478C70.3769 171.682 74.0806 168.643 76.6863 164.743C79.292 160.843 80.6827 156.257 80.6825 151.567C80.6751 145.28 78.1742 139.252 73.7283 134.807C69.2825 130.361 63.2548 127.86 56.9675 127.853V127.853Z" fill="#00EAA8"/>
</g>
<defs>
<clipPath id="clip0_2397_60">
<rect width="120.474" height="175.282" fill="white"/>
</clipPath>
</defs>
</svg>
