<svg width="24" height="16" viewBox="0 0 24 16" fill="none" xmlns="http://www.w3.org/2000/svg">
<g clip-path="url(#clip0_2397_56)">
<path d="M0 14.1888V1.37884C0 1.36418 0.0223333 1.22318 0.067 0.955843L7.606 7.40584L0.089 14.6318C0.0415208 14.4876 0.0116377 14.3382 0 14.1868V14.1888ZM1 0.0668434C1.12019 0.0192348 1.24877 -0.00355648 1.378 -0.000156968H21.678C21.8141 0.000412577 21.9492 0.0230398 22.078 0.0668434L14.516 6.53884L13.516 7.33884L11.537 8.96284L9.563 7.33884L8.563 6.53884L1 0.0668434ZM1.028 15.5008L8.607 8.23184L11.543 10.6118L14.478 8.23184L22.062 15.5038C21.9411 15.5488 21.813 15.5715 21.684 15.5708H1.379C1.25726 15.5702 1.13664 15.5475 1.023 15.5038L1.028 15.5008ZM15.484 7.40084L23.001 0.950843C23.0461 1.08729 23.0687 1.23015 23.068 1.37384V14.1838C23.0655 14.3345 23.043 14.4841 23.001 14.6288L15.484 7.40084Z" fill="#00EAA8"/>
</g>
<defs>
<clipPath id="clip0_2397_56">
<rect width="23.063" height="15.568" fill="white"/>
</clipPath>
</defs>
</svg>
