<svg width="10" height="10" viewBox="0 0 10 10" fill="none" xmlns="http://www.w3.org/2000/svg">
<g clip-path="url(#clip0_2397_54)">
<path d="M8.284 9.278H0.994C0.730375 9.278 0.477547 9.17328 0.291136 8.98686C0.104725 8.80045 0 8.54763 0 8.284L0 0.994C0 0.730375 0.104725 0.477547 0.291136 0.291136C0.477547 0.104725 0.730375 0 0.994 0H8.284C8.54763 0 8.80045 0.104725 8.98686 0.291136C9.17328 0.477547 9.278 0.730375 9.278 0.994V8.284C9.278 8.41453 9.25229 8.54379 9.20234 8.66439C9.15238 8.78499 9.07917 8.89456 8.98686 8.98686C8.89456 9.07917 8.78499 9.15238 8.66439 9.20234C8.54379 9.25229 8.41453 9.278 8.284 9.278ZM4.045 7.25L7.855 3.44C7.88587 3.40925 7.91037 3.3727 7.92708 3.33246C7.94379 3.29222 7.9524 3.24907 7.9524 3.2055C7.9524 3.16193 7.94379 3.11878 7.92708 3.07854C7.91037 3.0383 7.88587 3.00175 7.855 2.971L7.386 2.502C7.35525 2.47113 7.3187 2.44663 7.27846 2.42992C7.23822 2.41321 7.19507 2.4046 7.1515 2.4046C7.10793 2.4046 7.06478 2.41321 7.02454 2.42992C6.9843 2.44663 6.94775 2.47113 6.917 2.502L3.81 5.607L2.36 4.156C2.32925 4.12513 2.2927 4.10063 2.25246 4.08392C2.21222 4.06721 2.16907 4.0586 2.1255 4.0586C2.08193 4.0586 2.03878 4.06721 1.99854 4.08392C1.9583 4.10063 1.92175 4.12513 1.891 4.156L1.422 4.625C1.39113 4.65575 1.36663 4.6923 1.34992 4.73254C1.33321 4.77278 1.3246 4.81593 1.3246 4.8595C1.3246 4.90307 1.33321 4.94622 1.34992 4.98646C1.36663 5.0267 1.39113 5.06325 1.422 5.094L3.576 7.25C3.60675 7.28087 3.6433 7.30537 3.68354 7.32208C3.72378 7.33879 3.76693 7.3474 3.8105 7.3474C3.85407 7.3474 3.89722 7.33879 3.93746 7.32208C3.9777 7.30537 4.01425 7.28087 4.045 7.25V7.25Z" fill="#00EAA8"/>
</g>
<defs>
<clipPath id="clip0_2397_54">
<rect width="9.278" height="9.278" fill="white"/>
</clipPath>
</defs>
</svg>
